# Blender 4.0.0
# www.blender.org
mtllib bpy_test_obj.mtl
o 0b0e6df6479ffd5c48f58de1330e7f2ab1248620_>__>_root_>_
v -0.520700 -0.520700 -0.000000
v 0.520700 -0.520700 -0.000000
v 0.520700 -0.520700 0.063500
v -0.520700 -0.520700 0.063500
v 0.520700 -0.520700 -0.000000
v 0.520700 0.520700 0.000000
v 0.520700 0.520700 0.063500
v 0.520700 -0.520700 0.063500
v 0.520700 0.520700 0.000000
v -0.520700 0.520700 0.000000
v -0.520700 0.520700 0.063500
v 0.520700 0.520700 0.063500
v -0.520700 0.520700 0.000000
v -0.520700 -0.520700 -0.000000
v -0.520700 -0.520700 0.063500
v -0.520700 0.520700 0.063500
v -0.520700 -0.520700 -0.000000
v -0.520700 0.520700 0.000000
v 0.520700 0.520700 0.000000
v 0.520700 -0.520700 -0.000000
v -0.520700 -0.520700 0.063500
v 0.520700 -0.520700 0.063500
v 0.510700 -0.510700 0.063500
v -0.510700 -0.510700 0.063500
v -0.520700 0.520700 0.063500
v -0.520700 -0.520700 0.063500
v -0.510700 0.510700 0.063500
v 0.520700 0.520700 0.063500
v -0.520700 0.520700 0.063500
v 0.510700 0.510700 0.063500
v 0.520700 -0.520700 0.063500
v 0.520700 0.520700 0.063500
v -0.510700 -0.510700 0.063500
v 0.510700 -0.510700 0.063500
v 0.510700 -0.510700 0.043500
v -0.510700 -0.510700 0.043500
v 0.510700 -0.510700 0.063500
v 0.510700 0.510700 0.063500
v 0.510700 0.510700 0.043500
v 0.510700 -0.510700 0.043500
v 0.510700 0.510700 0.063500
v -0.510700 0.510700 0.063500
v -0.510700 0.510700 0.043500
v 0.510700 0.510700 0.043500
v -0.510700 0.510700 0.063500
v -0.510700 -0.510700 0.063500
v -0.510700 -0.510700 0.043500
v -0.510700 0.510700 0.043500
vn -0.0000 -1.0000 -0.0000
vn 1.0000 -0.0000 -0.0000
vn -0.0000 1.0000 -0.0000
vn -1.0000 -0.0000 -0.0000
vn -0.0000 -0.0000 -1.0000
vn -0.0000 -0.0000 1.0000
vt 0.000000 1.000000
vt 1.000000 1.000000
vt 1.000000 0.000000
vt 0.000000 0.000000
s 0
usemtl Plastic_Glossy
f 1/1/1 2/2/1 3/3/1
f 3/3/1 4/4/1 1/1/1
f 5/1/2 6/2/2 7/3/2
f 7/3/2 8/4/2 5/1/2
f 9/1/3 10/2/3 11/3/3
f 11/3/3 12/4/3 9/1/3
f 13/1/4 14/2/4 15/3/4
f 15/3/4 16/4/4 13/1/4
f 17/2/5 18/3/5 19/4/5
f 19/4/5 20/1/5 17/2/5
f 21/4/6 22/3/6 23/2/6
f 23/2/6 24/1/6 21/4/6
f 25/4/6 26/3/6 24/1/6
f 24/1/6 27/4/6 25/4/6
f 28/4/6 29/3/6 27/4/6
f 27/4/6 30/3/6 28/4/6
f 30/3/6 23/2/6 31/4/6
f 31/4/6 32/3/6 30/3/6
f 33/1/3 34/2/3 35/2/3
f 35/2/3 36/1/3 33/1/3
f 37/2/4 38/3/4 39/3/4
f 39/3/4 40/2/4 37/2/4
f 41/3/1 42/4/1 43/4/1
f 43/4/1 44/3/1 41/3/1
f 45/4/2 46/1/2 47/1/2
f 47/1/2 48/4/2 45/4/2
o 0b0e6df6479ffd5c48f58de1330e7f2ab1248620_>__>_root_>_.001
v -0.510700 -0.510700 0.043500
v 0.510700 -0.510700 0.043500
v 0.510700 0.510700 0.043500
v -0.510700 0.510700 0.043500
vn -0.0000 -0.0000 1.0000
vt 0.000499 0.999500
vt 0.999500 0.999501
vt 0.999501 0.000500
vt 0.000500 0.000499
s 0
usemtl Post
f 49/5/7 50/6/7 51/7/7
f 51/7/7 52/8/7 49/5/7
